<svg width="70" height="70" viewBox="0 0 70 70" fill="none" xmlns="http://www.w3.org/2000/svg">
<path d="M35 70C44.2826 70 53.185 67.2344 59.7487 62.3116C66.3125 57.3887 70 50.7119 70 43.75C70 36.5094 63.455 31.045 55.8133 24.6663C48.1483 18.27 39.375 10.9506 35 0C35 0 0 24.8762 0 43.75C0 50.7119 3.68749 57.3887 10.2513 62.3116C16.815 67.2344 25.7174 70 35 70ZM27.1017 20.3263L31.2317 23.4237C29.54 24.6925 24.6517 29.1594 20.1075 35.98L14.8925 34.02C19.6758 26.8406 24.9083 21.9756 27.1017 20.3263Z" fill="#21272A"/>
</svg>
