<svg width="70" height="70" viewBox="0 0 70 70" fill="none" xmlns="http://www.w3.org/2000/svg">
<g clip-path="url(#clip0_158_305)">
<path d="M8.75002 26.2501C8.74988 21.9154 9.82319 17.6481 11.8741 13.8293C13.925 10.0105 16.8897 6.75903 20.5035 4.36519C24.1172 1.97136 28.2675 0.509696 32.5838 0.110709C36.9001 -0.288278 41.2481 0.387834 45.2394 2.07867C49.2307 3.76951 52.7412 6.42245 55.4574 9.8006C58.1736 13.1788 60.0109 17.177 60.8054 21.4382C61.5998 25.6995 61.3266 30.0912 60.0102 34.2212C58.6938 38.3511 56.3752 42.0908 53.2613 45.1063C52.3731 45.9638 51.6906 46.8563 51.2794 47.8145L47.9456 55.5538C47.7765 55.9461 47.4962 56.2802 47.1393 56.515C46.7825 56.7498 46.3647 56.875 45.9375 56.8751H24.0625C23.6346 56.8758 23.2159 56.7511 22.8582 56.5162C22.5004 56.2814 22.2195 55.9468 22.05 55.5538L18.7206 47.8101C18.2439 46.7875 17.5705 45.8687 16.7388 45.1063C14.2084 42.6615 12.1968 39.7316 10.8242 36.4918C9.45158 33.2519 8.74614 29.7687 8.75002 26.2501ZM21.875 63.4376C21.875 62.8574 22.1055 62.301 22.5157 61.8908C22.926 61.4806 23.4824 61.2501 24.0625 61.2501H45.9375C46.5177 61.2501 47.0741 61.4806 47.4843 61.8908C47.8946 62.301 48.125 62.8574 48.125 63.4376C48.125 64.0178 47.8946 64.5742 47.4843 64.9844C47.0741 65.3946 46.5177 65.6251 45.9375 65.6251L44.9575 67.5807C44.5944 68.3073 44.0362 68.9185 43.3454 69.3458C42.6546 69.7731 41.8585 69.9997 41.0463 70.0001H28.9538C28.1415 69.9997 27.3454 69.7731 26.6546 69.3458C25.9638 68.9185 25.4056 68.3073 25.0425 67.5807L24.0625 65.6251C23.4824 65.6251 22.926 65.3946 22.5157 64.9844C22.1055 64.5742 21.875 64.0178 21.875 63.4376Z" fill="#21272A"/>
</g>
<defs>
<clipPath id="clip0_158_305">
<rect width="70" height="70" fill="white"/>
</clipPath>
</defs>
</svg>
