<svg width="70" height="70" viewBox="0 0 70 70" fill="none" xmlns="http://www.w3.org/2000/svg">
<path fill-rule="evenodd" clip-rule="evenodd" d="M41.5032 0.253142C43.5846 0.755707 45 2.23424 45 3.9059V23.0556L65 23.0556C66.8644 23.0556 68.5739 23.8501 69.4349 25.1168C70.2959 26.3835 70.1653 27.9119 69.0961 29.0818L34.0962 67.3812C32.8447 68.7507 30.5782 69.3402 28.4968 68.8376C26.4154 68.3351 25 66.8565 25 65.1849L25 46.0352H5.00001C3.13564 46.0352 1.42611 45.2406 0.565121 43.974C-0.295867 42.7073 -0.165295 41.1789 0.903854 40.0089L35.9038 1.70957C37.1553 0.340102 39.4218 -0.249423 41.5032 0.253142Z" fill="#21272A"/>
</svg>
